<svg width="1972" height="392" xmlns="http://www.w3.org/2000/svg"><defs><linearGradient x1="50%" y1="0%" x2="50%" y2="100%" id="a"><stop stop-color="#3B82F6" offset="0%"/><stop stop-color="#3B82F6" stop-opacity=".32" offset="100%"/></linearGradient><linearGradient x1="50%" y1="0%" x2="50%" y2="100%" id="c"><stop stop-color="#D946EF" stop-opacity=".64" offset="0%"/><stop stop-color="#D946EF" stop-opacity="0" offset="100%"/></linearGradient><filter x="-33.6%" y="-32.6%" width="167.1%" height="165.2%" filterUnits="objectBoundingBox" id="b"><feGaussianBlur stdDeviation="50" in="SourceGraphic"/></filter><filter x="-33.6%" y="-32.6%" width="167.1%" height="165.2%" filterUnits="objectBoundingBox" id="d"><feGaussianBlur stdDeviation="50" in="SourceGraphic"/></filter></defs><g fill-rule="nonzero" fill="none"><path d="M1364.5 0C1241.064 0 1141 102.975 1141 230s100.064 230 223.5 230S1588 357.025 1588 230C1587.857 103.036 1487.876.147 1364.5 0Zm107.16 308.341c-1.892 2.323-4.973 3.231-7.78 2.295l-98.896-32.908-98.896 32.908c-2.807.933-5.884.022-7.774-2.3-1.89-2.32-2.212-5.587-.815-8.25l101.128-192.49c1.376-2.238 3.776-3.596 6.357-3.596 2.58 0 4.981 1.358 6.357 3.596l101.128 192.49c1.401 2.663 1.08 5.932-.81 8.255Z" fill="url(#a)" filter="url(#b)" transform="translate(0 -286)"/><path d="M1636.5 147c-123.436 0-223.5 102.975-223.5 230s100.064 230 223.5 230S1860 504.025 1860 377c-.143-126.964-100.124-229.853-223.5-230Zm107.16 308.341c-1.892 2.323-4.973 3.231-7.78 2.295l-98.896-32.908-98.896 32.908c-2.807.933-5.884.022-7.774-2.3-1.89-2.32-2.212-5.587-.815-8.25l101.128-192.49c1.376-2.238 3.776-3.596 6.357-3.596 2.58 0 4.981 1.358 6.357 3.596l101.128 192.49c1.401 2.663 1.08 5.932-.81 8.255Z" fill="url(#c)" filter="url(#d)" transform="translate(0 -286)"/></g></svg>