<?xml version="1.0" standalone="no"?>
<!DOCTYPE svg PUBLIC "-//W3C//DTD SVG 20010904//EN"
 "http://www.w3.org/TR/2001/REC-SVG-20010904/DTD/svg10.dtd">
<svg version="1.0" xmlns="http://www.w3.org/2000/svg"
 width="700.000000pt" height="700.000000pt" viewBox="0 0 700.000000 700.000000"
 preserveAspectRatio="xMidYMid meet">
<metadata>
Created by potrace 1.14, written by Peter Selinger 2001-2017
</metadata>
<g transform="translate(0.000000,700.000000) scale(0.100000,-0.100000)"
fill="#000000" stroke="none">
<path d="M1497 6944 c-1 -1 -42 -4 -92 -8 -115 -8 -140 -12 -254 -42 -103 -27
-261 -87 -303 -116 -14 -10 -29 -18 -34 -18 -31 0 -241 -159 -331 -251 -97
-99 -114 -121 -177 -214 -135 -203 -221 -443 -242 -680 -9 -104 -9 -4125 0
-4230 21 -230 111 -487 239 -676 217 -321 536 -537 912 -618 50 -11 126 -23
170 -27 86 -7 4177 -8 4235 -1 205 26 356 70 515 150 254 127 463 324 613 580
29 48 52 92 52 96 0 5 11 31 24 58 23 46 69 182 81 240 37 172 36 143 37 2283
0 1857 -2 2186 -17 2240 -2 8 -7 31 -10 50 -18 110 -68 257 -128 375 -36 72
-130 222 -146 235 -4 3 -14 15 -23 28 -8 12 -42 51 -75 85 -226 238 -491 379
-832 442 -82 15 -395 18 -2203 19 -1105 1 -2010 0 -2011 0z"/>
</g>
</svg>
